<svg width="24" height="24" viewBox="0 0 24 24" fill="none" xmlns="http://www.w3.org/2000/svg" preserveAspectRatio="xMinYMid meet">
<path fill-rule="evenodd" clip-rule="evenodd" d="M8 3.5C8.27614 3.5 8.5 3.72386 8.5 4V5H15.5V4C15.5 3.72386 15.7239 3.5 16 3.5C16.2761 3.5 16.5 3.72386 16.5 4V5H18C18.8284 5 19.5 5.67157 19.5 6.5V18.5C19.5 19.3284 18.8284 20 18 20H6C5.17157 20 4.5 19.3284 4.5 18.5V6.5C4.5 5.67157 5.17157 5 6 5H7.5V4C7.5 3.72386 7.72386 3.5 8 3.5ZM7.5 6H6C5.72386 6 5.5 6.22386 5.5 6.5V8.5H18.5V6.5C18.5 6.22386 18.2761 6 18 6H16.5V6.75C16.5 7.02614 16.2761 7.25 16 7.25C15.7239 7.25 15.5 7.02614 15.5 6.75V6H8.5V6.75C8.5 7.02614 8.27614 7.25 8 7.25C7.72386 7.25 7.5 7.02614 7.5 6.75V6ZM18.5 9.5H5.5V18.5C5.5 18.7761 5.72386 19 6 19H18C18.2761 19 18.5 18.7761 18.5 18.5V9.5Z" fill="#212529"/>
<path d="M7.5 11.5H10V13.5H7.5V11.5Z" fill="#212529"/>
<path d="M11 11.5H13.5V13.5H11V11.5Z" fill="#212529"/>
<path d="M14.5 11.5H17V13.5H14.5V11.5Z" fill="#212529"/>
<path d="M7.5 14.5H10V16.5H7.5V14.5Z" fill="#212529"/>
<path d="M11 14.5H13.5V16.5H11V14.5Z" fill="#212529"/>
</svg>
